# xmcd
#
# Track frame offsets: 
#        150
#        18925
#        37525
#        59700
#        75525
#        97438
#        113488
#        133913
#        150538
#        169513
#        182838
#        203038
#
# Disc length: 2991 seconds
#
# Revision: 6
# Processed by: cddbd v1.5.2PL0 Copyright (c) Steve Scherf et al.
# Submitted via: ExactAudioCopy v1.0b3
#
DISCID=950bad0c
DTITLE=江蕙 - 苦酒的探戈
DYEAR=1994
DGENRE=Pop
TTITLE0=苦酒的探戈
TTITLE1=愛到袜凍愛
TTITLE2=心内歌
TTITLE3=入來阮夢中
TTITLE4=無情人請你離開
TTITLE5=無你我無望
TTITLE6=事到如今 (feat. 陳傑洲)
TTITLE7=我的所在我的人
TTITLE8=愛人這薄倖
TTITLE9=一切隨在伊
TTITLE10=阮的感謝
TTITLE11=敢愛嘸敢愛
EXTD=
EXTT0=
EXTT1=
EXTT2=
EXTT3=
EXTT4=
EXTT5=
EXTT6=
EXTT7=
EXTT8=
EXTT9=
EXTT10=
EXTT11=
PLAYORDER=
